<svg xmlns="http://www.w3.org/2000/svg" style="display:none">

<!-- ═══════════════════════════════════════
     EQUIPEMENTS CHAMBRES / ESPACES
     ═══════════════════════════════════════ -->

<symbol id="icon-lit" viewBox="0 0 24 24" fill="none" stroke="currentColor" stroke-width="1.5" stroke-linecap="round" stroke-linejoin="round">
  <path d="M3 21V11a2 2 0 0 1 2-2h14a2 2 0 0 1 2 2v10"/>
  <path d="M3 11V7a2 2 0 0 1 2-2h14a2 2 0 0 1 2 2v4"/>
  <path d="M12 9H7.5a2.5 2.5 0 0 1 0-5H12m0 5h4.5a2.5 2.5 0 0 0 0-5H12"/>
  <line x1="2" y1="21" x2="22" y2="21"/>
</symbol>

<symbol id="icon-climatisation" viewBox="0 0 24 24" fill="none" stroke="currentColor" stroke-width="1.5" stroke-linecap="round" stroke-linejoin="round">
  <path d="M12 2v20M2 12h20"/>
  <path d="M17 7l-5 5-5-5"/>
  <path d="M7 17l5-5 5 5"/>
  <path d="M7 7l5 5 5-5" opacity="0"/>
</symbol>

<symbol id="icon-tv" viewBox="0 0 24 24" fill="none" stroke="currentColor" stroke-width="1.5" stroke-linecap="round" stroke-linejoin="round">
  <rect x="2" y="4" width="20" height="14" rx="1"/>
  <line x1="8" y1="21" x2="16" y2="21"/>
  <line x1="12" y1="18" x2="12" y2="21"/>
</symbol>

<symbol id="icon-wifi" viewBox="0 0 24 24" fill="none" stroke="currentColor" stroke-width="1.5" stroke-linecap="round" stroke-linejoin="round">
  <path d="M5 12.55a11 11 0 0 1 14 0"/>
  <path d="M1.42 9a16 16 0 0 1 21.16 0"/>
  <path d="M8.53 16.11a6 6 0 0 1 6.95 0"/>
  <circle cx="12" cy="20" r="1" fill="currentColor" stroke="none"/>
</symbol>

<symbol id="icon-bibliotheque" viewBox="0 0 24 24" fill="none" stroke="currentColor" stroke-width="1.5" stroke-linecap="round" stroke-linejoin="round">
  <path d="M4 19.5A2.5 2.5 0 0 1 6.5 17H20"/>
  <path d="M6.5 2H20v20H6.5A2.5 2.5 0 0 1 4 19.5v-15A2.5 2.5 0 0 1 6.5 2z"/>
  <line x1="8" y1="7" x2="16" y2="7"/>
  <line x1="8" y1="11" x2="13" y2="11"/>
</symbol>

<symbol id="icon-vue-jardin" viewBox="0 0 24 24" fill="none" stroke="currentColor" stroke-width="1.5" stroke-linecap="round" stroke-linejoin="round">
  <path d="M12 22V12"/>
  <path d="M12 12C12 12 8 8 8 5a4 4 0 0 1 8 0c0 3-4 7-4 7z"/>
  <path d="M7 22c0-3 2-5 5-5s5 2 5 5"/>
  <line x1="2" y1="22" x2="22" y2="22"/>
</symbol>

<symbol id="icon-jardin" viewBox="0 0 24 24" fill="none" stroke="currentColor" stroke-width="1.5" stroke-linecap="round" stroke-linejoin="round">
  <path d="M12 22V8"/>
  <path d="M5 12c0-4 3-8 7-8s7 4 7 8"/>
  <path d="M3 22c0-3.5 4-6 9-6s9 2.5 9 6"/>
  <line x1="1" y1="22" x2="23" y2="22"/>
</symbol>

<symbol id="icon-clic-clac" viewBox="0 0 24 24" fill="none" stroke="currentColor" stroke-width="1.5" stroke-linecap="round" stroke-linejoin="round">
  <path d="M2 16h20v2a2 2 0 0 1-2 2H4a2 2 0 0 1-2-2v-2z"/>
  <path d="M4 16V9a1 1 0 0 1 1-1h14a1 1 0 0 1 1 1v7"/>
  <path d="M2 20v1M22 20v1"/>
</symbol>

<symbol id="icon-salle-de-bain" viewBox="0 0 24 24" fill="none" stroke="currentColor" stroke-width="1.5" stroke-linecap="round" stroke-linejoin="round">
  <path d="M4 12h16a1 1 0 0 1 1 1v3a4 4 0 0 1-4 4H7a4 4 0 0 1-4-4v-3a1 1 0 0 1 1-1z"/>
  <path d="M6 12V5a2 2 0 0 1 2-2h1"/>
  <line x1="4" y1="20" x2="4" y2="22"/>
  <line x1="20" y1="20" x2="20" y2="22"/>
</symbol>

<symbol id="icon-douche" viewBox="0 0 24 24" fill="none" stroke="currentColor" stroke-width="1.5" stroke-linecap="round" stroke-linejoin="round">
  <path d="M4 4v16"/>
  <path d="M4 4h12a2 2 0 0 1 2 2v1"/>
  <circle cx="18" cy="9" r="2"/>
  <path d="M11 13l-1 3M14 13l-1 3M8 13l-1 3M17 13l-1 3"/>
  <line x1="6" y1="13" x2="20" y2="13"/>
</symbol>

<symbol id="icon-vintage" viewBox="0 0 24 24" fill="none" stroke="currentColor" stroke-width="1.5" stroke-linecap="round" stroke-linejoin="round">
  <rect x="4" y="8" width="16" height="10" rx="1"/>
  <path d="M8 8V6a4 4 0 0 1 8 0v2"/>
  <circle cx="12" cy="13" r="2"/>
  <line x1="12" y1="15" x2="12" y2="16"/>
</symbol>

<symbol id="icon-cuisine" viewBox="0 0 24 24" fill="none" stroke="currentColor" stroke-width="1.5" stroke-linecap="round" stroke-linejoin="round">
  <path d="M3 11h18v10a1 1 0 0 1-1 1H4a1 1 0 0 1-1-1V11z"/>
  <path d="M12 2v4M8 4v2M16 4v2"/>
  <line x1="3" y1="16" x2="21" y2="16"/>
</symbol>

<symbol id="icon-parking" viewBox="0 0 24 24" fill="none" stroke="currentColor" stroke-width="1.5" stroke-linecap="round" stroke-linejoin="round">
  <rect x="3" y="3" width="18" height="18" rx="2"/>
  <path d="M9 17V7h4a3 3 0 0 1 0 6H9"/>
</symbol>

<symbol id="icon-barbecue" viewBox="0 0 24 24" fill="none" stroke="currentColor" stroke-width="1.5" stroke-linecap="round" stroke-linejoin="round">
  <circle cx="12" cy="10" r="6"/>
  <line x1="8" y1="16" x2="6" y2="22"/>
  <line x1="16" y1="16" x2="18" y2="22"/>
  <line x1="12" y1="16" x2="12" y2="22"/>
  <path d="M9 3c0 1.5 1 2 1 3M12 2c0 1.5 1 2 1 3M15 3c0 1.5 1 2 1 3"/>
</symbol>

<symbol id="icon-linge" viewBox="0 0 24 24" fill="none" stroke="currentColor" stroke-width="1.5" stroke-linecap="round" stroke-linejoin="round">
  <path d="M3 6h18l-1 14a2 2 0 0 1-2 2H6a2 2 0 0 1-2-2L3 6z"/>
  <path d="M3 6l1-3h16l1 3"/>
  <path d="M9 10v4M15 10v4"/>
</symbol>

<symbol id="icon-animaux" viewBox="0 0 24 24" fill="none" stroke="currentColor" stroke-width="1.5" stroke-linecap="round" stroke-linejoin="round">
  <circle cx="11" cy="4" r="2"/>
  <circle cx="18" cy="8" r="2"/>
  <circle cx="4" cy="8" r="2"/>
  <path d="M12 22c-4 0-6-3-6-6 0-2 2-4 6-4s6 2 6 4c0 3-2 6-6 6z"/>
</symbol>

<!-- ═══════════════════════════════════════
     STATS / CHIFFRES CLES
     ═══════════════════════════════════════ -->

<symbol id="icon-maison" viewBox="0 0 24 24" fill="none" stroke="currentColor" stroke-width="1.5" stroke-linecap="round" stroke-linejoin="round">
  <path d="M3 12l9-9 9 9"/>
  <path d="M5 10v10a1 1 0 0 0 1 1h12a1 1 0 0 0 1-1V10"/>
</symbol>

<symbol id="icon-personnes" viewBox="0 0 24 24" fill="none" stroke="currentColor" stroke-width="1.5" stroke-linecap="round" stroke-linejoin="round">
  <circle cx="9" cy="7" r="3"/>
  <path d="M3 21v-2a4 4 0 0 1 4-4h4a4 4 0 0 1 4 4v2"/>
  <circle cx="17" cy="8" r="2.5"/>
  <path d="M21 21v-1.5a3 3 0 0 0-3-3h-.5"/>
</symbol>

<symbol id="icon-piscine" viewBox="0 0 24 24" fill="none" stroke="currentColor" stroke-width="1.5" stroke-linecap="round" stroke-linejoin="round">
  <path d="M2 16c1.5-1 3-1 4.5 0s3 1 4.5 0 3-1 4.5 0 3 1 4.5 0"/>
  <path d="M2 20c1.5-1 3-1 4.5 0s3 1 4.5 0 3-1 4.5 0 3 1 4.5 0"/>
  <line x1="6" y1="4" x2="6" y2="16"/>
  <line x1="18" y1="4" x2="18" y2="16"/>
  <path d="M6 8h12"/>
</symbol>

<symbol id="icon-vignoble" viewBox="0 0 24 24" fill="none" stroke="currentColor" stroke-width="1.5" stroke-linecap="round" stroke-linejoin="round">
  <path d="M12 22V12"/>
  <path d="M8 22h8"/>
  <path d="M7 2l5 10 5-10"/>
  <path d="M4.5 7h15"/>
</symbol>

<symbol id="icon-transport" viewBox="0 0 24 24" fill="none" stroke="currentColor" stroke-width="1.5" stroke-linecap="round" stroke-linejoin="round">
  <path d="M4 11V6a2 2 0 0 1 2-2h12a2 2 0 0 1 2 2v5"/>
  <path d="M3 11h18v7a2 2 0 0 1-2 2H5a2 2 0 0 1-2-2v-7z"/>
  <circle cx="7.5" cy="15.5" r="1.5"/>
  <circle cx="16.5" cy="15.5" r="1.5"/>
  <line x1="3" y1="22" x2="7" y2="20"/>
  <line x1="21" y1="22" x2="17" y2="20"/>
</symbol>

<symbol id="icon-etoile" viewBox="0 0 24 24" fill="none" stroke="currentColor" stroke-width="1.5" stroke-linecap="round" stroke-linejoin="round">
  <polygon points="12 2 15.09 8.26 22 9.27 17 14.14 18.18 21.02 12 17.77 5.82 21.02 7 14.14 2 9.27 8.91 8.26 12 2"/>
</symbol>

<symbol id="icon-etoile-pleine" viewBox="0 0 24 24">
  <polygon points="12 2 15.09 8.26 22 9.27 17 14.14 18.18 21.02 12 17.77 5.82 21.02 7 14.14 2 9.27 8.91 8.26 12 2" fill="currentColor"/>
</symbol>

<symbol id="icon-superhost" viewBox="0 0 24 24" fill="none" stroke="currentColor" stroke-width="1.5" stroke-linecap="round" stroke-linejoin="round">
  <path d="M12 2l2.4 7.4H22l-6.2 4.5 2.4 7.4L12 16.8l-6.2 4.5 2.4-7.4L2 9.4h7.6z"/>
  <circle cx="12" cy="12" r="3"/>
</symbol>

<!-- ═══════════════════════════════════════
     TERRITOIRE / PROXIMITE
     ═══════════════════════════════════════ -->

<symbol id="icon-vin" viewBox="0 0 24 24" fill="none" stroke="currentColor" stroke-width="1.5" stroke-linecap="round" stroke-linejoin="round">
  <path d="M8 22h8M12 13v9"/>
  <path d="M5 2h14l-1.5 7a5.5 5.5 0 0 1-11 0L5 2z"/>
  <path d="M5 6h14"/>
</symbol>

<symbol id="icon-monument" viewBox="0 0 24 24" fill="none" stroke="currentColor" stroke-width="1.5" stroke-linecap="round" stroke-linejoin="round">
  <path d="M3 21h18"/>
  <path d="M5 21V8l7-5 7 5v13"/>
  <path d="M9 21v-6h6v6"/>
  <line x1="9" y1="10" x2="9" y2="10.01"/>
  <line x1="15" y1="10" x2="15" y2="10.01"/>
</symbol>

<symbol id="icon-theatre" viewBox="0 0 24 24" fill="none" stroke="currentColor" stroke-width="1.5" stroke-linecap="round" stroke-linejoin="round">
  <path d="M4 21V8a8 8 0 0 1 16 0v13"/>
  <line x1="4" y1="21" x2="20" y2="21"/>
  <line x1="8" y1="8" x2="8" y2="17"/>
  <line x1="12" y1="6" x2="12" y2="17"/>
  <line x1="16" y1="8" x2="16" y2="17"/>
</symbol>

<symbol id="icon-antiquites" viewBox="0 0 24 24" fill="none" stroke="currentColor" stroke-width="1.5" stroke-linecap="round" stroke-linejoin="round">
  <rect x="2" y="7" width="20" height="14" rx="1"/>
  <path d="M16 7V5a4 4 0 0 0-8 0v2"/>
  <line x1="12" y1="12" x2="12" y2="16"/>
  <line x1="10" y1="14" x2="14" y2="14"/>
</symbol>

<symbol id="icon-aqueduc" viewBox="0 0 24 24" fill="none" stroke="currentColor" stroke-width="1.5" stroke-linecap="round" stroke-linejoin="round">
  <line x1="2" y1="22" x2="22" y2="22"/>
  <line x1="2" y1="6" x2="22" y2="6"/>
  <path d="M4 6v6a3 3 0 0 0 6 0V6M10 6v6a3 3 0 0 0 6 0V6M16 6v6a3 3 0 0 0 6 0V6"/>
  <line x1="4" y1="15" x2="4" y2="22"/>
  <line x1="10" y1="15" x2="10" y2="22"/>
  <line x1="16" y1="15" x2="16" y2="22"/>
  <line x1="22" y1="12" x2="22" y2="22"/>
</symbol>

<symbol id="icon-village" viewBox="0 0 24 24" fill="none" stroke="currentColor" stroke-width="1.5" stroke-linecap="round" stroke-linejoin="round">
  <path d="M3 21h18"/>
  <path d="M5 21V11l4-4 4 4v10"/>
  <path d="M13 21V13l4-3 4 3v8"/>
  <rect x="8" y="13" width="2" height="3"/>
  <rect x="16" y="15" width="2" height="2"/>
</symbol>

<symbol id="icon-archeologie" viewBox="0 0 24 24" fill="none" stroke="currentColor" stroke-width="1.5" stroke-linecap="round" stroke-linejoin="round">
  <path d="M6 21h12"/>
  <path d="M8 21V11"/>
  <path d="M16 21V11"/>
  <path d="M6 11h12"/>
  <path d="M8 11V7a4 4 0 0 1 8 0v4"/>
  <line x1="12" y1="11" x2="12" y2="21"/>
</symbol>

<symbol id="icon-montagne" viewBox="0 0 24 24" fill="none" stroke="currentColor" stroke-width="1.5" stroke-linecap="round" stroke-linejoin="round">
  <path d="M12 4l8 16H4L12 4z"/>
  <path d="M8 14l2-2 2 2"/>
  <circle cx="17" cy="6" r="2"/>
</symbol>

<!-- ═══════════════════════════════════════
     PLATEFORMES AVIS
     ═══════════════════════════════════════ -->

<symbol id="icon-airbnb" viewBox="0 0 32 32">
  <!-- Airbnb Bélo officiel (forme arrondie avec boucle) -->
  <path d="M16 1C14.42 4.24 11.3 8.43 9.21 11.44c-2.1 3.02-3.43 5.56-3.93 7.66-.58 2.41-.24 4.3.93 5.57.88.96 2.1 1.48 3.52 1.48 1.2 0 2.42-.43 3.56-1.12.74-.45 1.46-1.02 2.13-1.66.04-.04.38-.38.58-.6.2.22.54.56.58.6.67.64 1.39 1.21 2.13 1.66 1.14.69 2.36 1.12 3.56 1.12 1.42 0 2.64-.52 3.52-1.48 1.17-1.27 1.51-3.16.93-5.57-.5-2.1-1.83-4.64-3.93-7.66C20.7 8.43 17.58 4.24 16 1zm0 14.5c-.64 0-1.26.28-1.68.76-.42.48-.86 1.18-.86 2.24s.44 1.76.86 2.24c.42.48 1.04.76 1.68.76s1.26-.28 1.68-.76c.42-.48.86-1.18.86-2.24s-.44-1.76-.86-2.24c-.42-.48-1.04-.76-1.68-.76z" fill="#FF5A5F" fill-rule="evenodd"/>
</symbol>

<symbol id="icon-booking" viewBox="0 0 32 32">
  <!-- Booking.com officiel: fond bleu marine, B blanc, point bleu clair -->
  <rect width="32" height="32" rx="6" fill="#003580"/>
  <path d="M8 7v18h5.8c4.2 0 6.6-2.4 6.6-5.6 0-2.2-1.2-3.9-3.2-4.5 1.4-.7 2.3-2 2.3-3.7C19.5 8.4 17.2 7 13.8 7H8zm3.4 2.2h2.4c1.6 0 2.5.8 2.5 2.1 0 1.3-.9 2.2-2.5 2.2h-2.4V9.2zm0 6.4h2.8c1.8 0 2.8.9 2.8 2.5 0 1.5-1 2.4-2.8 2.4h-2.8v-4.9z" fill="#fff"/>
  <circle cx="22.5" cy="20.5" r="2.2" fill="#00aaff"/>
</symbol>

<symbol id="icon-google" viewBox="0 0 24 24">
  <path d="M22.56 12.25c0-.78-.07-1.53-.2-2.25H12v4.26h5.92a5.06 5.06 0 0 1-2.2 3.32v2.77h3.57c2.08-1.92 3.28-4.74 3.28-8.1z" fill="#4285F4"/>
  <path d="M12 23c2.97 0 5.46-.98 7.28-2.66l-3.57-2.77c-.98.66-2.23 1.06-3.71 1.06-2.86 0-5.29-1.93-6.16-4.53H2.18v2.84C3.99 20.53 7.7 23 12 23z" fill="#34A853"/>
  <path d="M5.84 14.09a6.9 6.9 0 0 1 0-4.17V7.07H2.18A11.96 11.96 0 0 0 1 12c0 1.94.46 3.77 1.18 5.07l3.66-2.98z" fill="#FBBC05"/>
  <path d="M12 5.38c1.62 0 3.06.56 4.21 1.64l3.15-3.15C17.45 2.09 14.97 1 12 1 7.7 1 3.99 3.47 2.18 7.07l3.66 2.84c.87-2.6 3.3-4.53 6.16-4.53z" fill="#EA4335"/>
</symbol>

<!-- ═══════════════════════════════════════
     CONTACT / RESEAUX SOCIAUX
     ═══════════════════════════════════════ -->

<symbol id="icon-email" viewBox="0 0 24 24" fill="none" stroke="currentColor" stroke-width="1.5" stroke-linecap="round" stroke-linejoin="round">
  <rect x="2" y="4" width="20" height="16" rx="2"/>
  <path d="M22 4L12 13 2 4"/>
</symbol>

<symbol id="icon-telephone" viewBox="0 0 24 24" fill="none" stroke="currentColor" stroke-width="1.5" stroke-linecap="round" stroke-linejoin="round">
  <path d="M22 16.92v3a2 2 0 0 1-2.18 2 19.79 19.79 0 0 1-8.63-3.07 19.5 19.5 0 0 1-6-6 19.79 19.79 0 0 1-3.07-8.67A2 2 0 0 1 4.11 2h3a2 2 0 0 1 2 1.72c.13.81.36 1.6.67 2.36a2 2 0 0 1-.45 2.11L8.09 9.91a16 16 0 0 0 6 6l1.27-1.27a2 2 0 0 1 2.11-.45c.76.31 1.55.54 2.36.67A2 2 0 0 1 22 16.92z"/>
</symbol>

<symbol id="icon-localisation" viewBox="0 0 24 24" fill="none" stroke="currentColor" stroke-width="1.5" stroke-linecap="round" stroke-linejoin="round">
  <path d="M21 10c0 7-9 13-9 13s-9-6-9-13a9 9 0 0 1 18 0z"/>
  <circle cx="12" cy="10" r="3"/>
</symbol>

<symbol id="icon-instagram" viewBox="0 0 24 24" fill="none" stroke="currentColor" stroke-width="1.5" stroke-linecap="round" stroke-linejoin="round">
  <rect x="2" y="2" width="20" height="20" rx="5"/>
  <circle cx="12" cy="12" r="5"/>
  <circle cx="17.5" cy="6.5" r="1.5" fill="currentColor" stroke="none"/>
</symbol>

<symbol id="icon-facebook" viewBox="0 0 24 24">
  <path d="M24 12.07C24 5.41 18.63 0 12 0S0 5.41 0 12.07c0 6.03 4.39 11.02 10.13 11.93v-8.44H7.08v-3.49h3.04V9.41c0-3.02 1.79-4.69 4.53-4.69 1.31 0 2.68.24 2.68.24v2.97h-1.51c-1.49 0-1.95.93-1.95 1.89v2.26h3.33l-.53 3.49h-2.8v8.44C19.61 23.09 24 18.1 24 12.07z" fill="#1877F2"/>
</symbol>

<!-- ═══════════════════════════════════════
     NAVIGATION / UI
     ═══════════════════════════════════════ -->

<symbol id="icon-fleche-droite" viewBox="0 0 24 24" fill="none" stroke="currentColor" stroke-width="1.5" stroke-linecap="round" stroke-linejoin="round">
  <line x1="5" y1="12" x2="19" y2="12"/>
  <polyline points="12 5 19 12 12 19"/>
</symbol>

<symbol id="icon-fleche-gauche" viewBox="0 0 24 24" fill="none" stroke="currentColor" stroke-width="1.5" stroke-linecap="round" stroke-linejoin="round">
  <line x1="19" y1="12" x2="5" y2="12"/>
  <polyline points="12 19 5 12 12 5"/>
</symbol>

<symbol id="icon-chevron-bas" viewBox="0 0 24 24" fill="none" stroke="currentColor" stroke-width="1.5" stroke-linecap="round" stroke-linejoin="round">
  <polyline points="6 9 12 15 18 9"/>
</symbol>

<symbol id="icon-horloge" viewBox="0 0 24 24" fill="none" stroke="currentColor" stroke-width="1.5" stroke-linecap="round" stroke-linejoin="round">
  <circle cx="12" cy="12" r="10"/>
  <polyline points="12 6 12 12 16 14"/>
</symbol>

<symbol id="icon-calendrier" viewBox="0 0 24 24" fill="none" stroke="currentColor" stroke-width="1.5" stroke-linecap="round" stroke-linejoin="round">
  <rect x="3" y="4" width="18" height="18" rx="2"/>
  <line x1="16" y1="2" x2="16" y2="6"/>
  <line x1="8" y1="2" x2="8" y2="6"/>
  <line x1="3" y1="10" x2="21" y2="10"/>
</symbol>

<symbol id="icon-check" viewBox="0 0 24 24" fill="none" stroke="currentColor" stroke-width="1.5" stroke-linecap="round" stroke-linejoin="round">
  <polyline points="20 6 9 17 4 12"/>
</symbol>

<symbol id="icon-plus" viewBox="0 0 24 24" fill="none" stroke="currentColor" stroke-width="1.5" stroke-linecap="round" stroke-linejoin="round">
  <line x1="12" y1="5" x2="12" y2="19"/>
  <line x1="5" y1="12" x2="19" y2="12"/>
</symbol>

<symbol id="icon-fermer" viewBox="0 0 24 24" fill="none" stroke="currentColor" stroke-width="1.5" stroke-linecap="round" stroke-linejoin="round">
  <line x1="18" y1="6" x2="6" y2="18"/>
  <line x1="6" y1="6" x2="18" y2="18"/>
</symbol>

<symbol id="icon-lien-externe" viewBox="0 0 24 24" fill="none" stroke="currentColor" stroke-width="1.5" stroke-linecap="round" stroke-linejoin="round">
  <path d="M18 13v6a2 2 0 0 1-2 2H5a2 2 0 0 1-2-2V8a2 2 0 0 1 2-2h6"/>
  <polyline points="15 3 21 3 21 9"/>
  <line x1="10" y1="14" x2="21" y2="3"/>
</symbol>

<!-- ═══════════════════════════════════════
     INFORMATIONS PRATIQUES
     ═══════════════════════════════════════ -->

<symbol id="icon-petit-dejeuner" viewBox="0 0 24 24" fill="none" stroke="currentColor" stroke-width="1.5" stroke-linecap="round" stroke-linejoin="round">
  <path d="M18 8h1a4 4 0 0 1 0 8h-1"/>
  <path d="M2 8h16v9a4 4 0 0 1-4 4H6a4 4 0 0 1-4-4V8z"/>
  <line x1="6" y1="2" x2="6" y2="5"/>
  <line x1="10" y1="2" x2="10" y2="5"/>
  <line x1="14" y1="2" x2="14" y2="5"/>
</symbol>

<symbol id="icon-serviette" viewBox="0 0 24 24" fill="none" stroke="currentColor" stroke-width="1.5" stroke-linecap="round" stroke-linejoin="round">
  <rect x="4" y="2" width="16" height="20" rx="1"/>
  <line x1="4" y1="7" x2="20" y2="7"/>
  <line x1="4" y1="17" x2="20" y2="17"/>
  <path d="M9 7v10M15 7v10"/>
</symbol>

<symbol id="icon-cle" viewBox="0 0 24 24" fill="none" stroke="currentColor" stroke-width="1.5" stroke-linecap="round" stroke-linejoin="round">
  <path d="M21 2l-2 2m-7.61 7.61a5.5 5.5 0 1 1-7.78 7.78 5.5 5.5 0 0 1 7.78-7.78zm0 0L15.5 7.5m0 0l3 3L22 7l-3-3m-3.5 3.5L19 4"/>
</symbol>

<symbol id="icon-soleil" viewBox="0 0 24 24" fill="none" stroke="currentColor" stroke-width="1.5" stroke-linecap="round" stroke-linejoin="round">
  <circle cx="12" cy="12" r="5"/>
  <line x1="12" y1="1" x2="12" y2="3"/>
  <line x1="12" y1="21" x2="12" y2="23"/>
  <line x1="4.22" y1="4.22" x2="5.64" y2="5.64"/>
  <line x1="18.36" y1="18.36" x2="19.78" y2="19.78"/>
  <line x1="1" y1="12" x2="3" y2="12"/>
  <line x1="21" y1="12" x2="23" y2="12"/>
  <line x1="4.22" y1="19.78" x2="5.64" y2="18.36"/>
  <line x1="18.36" y1="5.64" x2="19.78" y2="4.22"/>
</symbol>

<symbol id="icon-transat" viewBox="0 0 24 24" fill="none" stroke="currentColor" stroke-width="1.5" stroke-linecap="round" stroke-linejoin="round">
  <path d="M4 20l3-12h10l3 12"/>
  <line x1="7" y1="8" x2="17" y2="8"/>
  <line x1="9" y1="12" x2="15" y2="12"/>
  <path d="M2 20h20"/>
</symbol>

<symbol id="icon-velo" viewBox="0 0 24 24" fill="none" stroke="currentColor" stroke-width="1.5" stroke-linecap="round" stroke-linejoin="round">
  <circle cx="5.5" cy="17.5" r="3.5"/>
  <circle cx="18.5" cy="17.5" r="3.5"/>
  <path d="M15 6a1 1 0 1 0 0-2 1 1 0 0 0 0 2z" fill="currentColor"/>
  <path d="M12 17.5V14l-3-3 4-3 2 3h3"/>
</symbol>

</svg>
