<svg xmlns="http://www.w3.org/2000/svg" viewBox="0 0 522 522"><circle cx="260.9" cy="261" r="261" fill="#EC6C66"/><g fill="#FFF" stroke="#FFF" stroke-width="0.75"><path d="M157.7,72.5l31.9,32.3l0.2-45.7c0-0.8,0.3-1.5,1.2-1.8c1-0.4,1.8-0.1,2.1,0.7c0.2,0.6,0.2,1,0.2,1l-0.3,50.9c0,0.5-0.3,0.9-1,1.2c-0.7,0.3-1.1,0.2-1.5-0.2l-35.7-36.2c0,0-0.3-0.2-0.6-0.9c-0.2-0.6-0.1-1.5,1.1-2C156.5,71.4,157.1,71.8,157.7,72.5z"/><path d="M224.9,99c0.1,0.6-0.1,1.4-1.7,1.7c-1.4,0.3-2-0.3-2.2-0.9L211,54c-0.2-0.7,0.2-1.3,1.6-1.6c1.5-0.3,2,0,2.2,0.8L224.9,99z"/><path d="M266.7,91.5c0,0,1.2,0.3,1.3,1.9c0.1,1.7-1,2.1-1,2.1l-27,1.8c-0.7,0-1.2-0.5-1.3-1.2l-3.2-46.9c-0.1-0.7,0.4-1.3,1.8-1.4c1.6-0.1,2,0.3,2.1,1.1l3,44.1L266.7,91.5z"/><path d="M307.2,95.9c0,0,1.1,0.5,0.9,2.2c-0.2,1.7-1.4,1.8-1.4,1.8l-26.8-3.6c-0.7-0.1-1.1-0.7-1-1.5l6.3-46.5c0.1-0.7,0.6-1.2,2.1-1c1.6,0.2,1.9,0.7,1.8,1.5l-5.9,43.8L307.2,95.9z"/><path d="M325.7,93.3l-6.8,7.4c-1,1.1-1.6,1.5-2.9,1c-0.9-0.3-1.3-1.2-1-2c0.2-0.6,0.6-0.9,0.6-0.9l34-36.5c0.6-0.6,1.3-1.3,2.3-1c1,0.4,1,1.4,1,2.3l1.8,49.9c0,0,0.1,0.4-0.2,1c-0.2,0.6-1,1.3-2.1,0.9c-1-0.4-1.3-1.1-1.4-2.1l-0.3-10.6L325.7,93.3z M328.8,90.1l21.7,8.2l-1-30.4L328.8,90.1z"/></g><g fill="#FFF" stroke="#FFF" stroke-width="0.75"><path d="M134.1,372.9c10.4-6.1,8.8-14.6,2.7-24.9l-3.9-6.7l-46.4,27.3c0,0-1.6,0.9-2.7-0.9c-1.1-1.8,0.5-2.8,0.5-2.8l48.8-28.7c0.8-0.5,1.7-0.3,2.1,0.4l5.3,9.1c7.3,12.4,8,23.5-4.5,30.9c-14.3,8.4-26.5,0.3-33.3-11.3c-1-1.6-0.6-2.5,0.6-3.2c1.3-0.8,2.1-0.6,3.1,1C112.1,372.7,121.6,380.3,134.1,372.9z"/><path d="M138.5,432.9c0,0,0.5,1.1-0.7,2.3c-1.3,1.2-2.3,0.6-2.3,0.6l-19.3-20c-0.5-0.5-0.4-1.2,0.2-1.8l34.8-33.6c0.5-0.5,1.3-0.5,2.3,0.5c1.1,1.2,1.1,1.8,0.5,2.4L121.2,415L138.5,432.9z"/><path d="M163.4,443.2l-8.3,6.3c-1.2,0.9-1.9,1.2-3.1,0.5c-0.8-0.5-1.1-1.5-0.6-2.2c0.3-0.5,0.7-0.8,0.7-0.8l41.1-30.7c0.7-0.5,1.6-1.1,2.5-0.6c0.9,0.5,0.7,1.5,0.6,2.5l-7.4,50.8c0,0,0,0.5-0.4,1c-0.3,0.6-1.2,1.1-2.3,0.5c-0.9-0.5-1.2-1.3-1-2.4l1.6-10.8L163.4,443.2z M167,440.5l20.4,12.2l4.6-31L167,440.5z"/><path d="M211.3,477.6c-0.2,0.6-0.8,1.2-2.4,0.7c-1.4-0.4-1.7-1.3-1.5-1.9l14.7-46.1c0.2-0.7,0.9-1.1,2.3-0.6c1.5,0.5,1.8,1.1,1.6,1.8L211.3,477.6z"/><path d="M249.2,482.8c8,0.6,13.6-3.2,14.1-9.3c1-13.6-27.3-10.1-26.2-26.3c0.6-8.2,7.3-13.5,16.7-12.8c7.8,0.6,12.8,5.4,12.4,10.7c-0.2,3.2-2.7,5.2-4,5.1c-1.1-0.1-1.4-0.7-1.3-1.2c0.1-1,1.1-1.2,1.3-3.9c0.2-3.4-3.1-6.3-8.7-6.7c-6-0.4-12,2.1-12.4,8.3c-1,13.3,27.3,9.8,26.1,26.5c-0.6,8.1-7.1,14.6-18.2,13.8c-9.7-0.7-16-5-15.5-12.2c0.3-4.6,3.1-6.4,4.2-6.3c0.7,0.1,1.3,0.7,1.2,1.5c-0.1,1-1.4,2.1-1.6,4.3C237.1,479.1,241.6,482.3,249.2,482.8z"/><path d="M293.5,472.4l-1,10.3c-0.1,1.5-0.5,2.2-1.8,2.6c-0.9,0.3-1.8-0.2-2.1-1.1c-0.2-0.6-0.1-1.1-0.1-1.1l5.5-51c0.1-0.9,0.3-1.9,1.3-2.2c1-0.3,1.6,0.5,2.2,1.3l32.2,40c0,0,0.3,0.3,0.5,0.9c0.2,0.6,0,1.7-1.2,2c-1,0.3-1.8-0.1-2.5-0.9l-6.8-8.5L293.5,472.4z M294,467.8l22.8-6.6l-19.6-24.5L294,467.8z"/><path d="M326.1,419.4l48.6,17.1l-24.3-34c-0.3-0.5-0.3-1.3,0.7-2.1c1-0.7,1.8-0.4,2.2,0l28.2,39.5c0.5,0.7,0.2,1.3-0.5,1.8c-0.9,0.6-1.6,0.3-2.3,0.1l-49.1-16.9l24.5,34.3c0.4,0.5,0.4,1.4-0.6,2.1c-1.1,0.8-1.8,0.5-2.2-0.1L323.2,422c-0.4-0.5-0.3-1.4,0.8-2.3C324.7,419.3,325.5,419.1,326.1,419.4z"/><path d="M375.9,377.2c-5.7,7.2-6.3,17.6,7,28c11.8,9.3,22.3,6.5,28.2-1c4.4-5.6,4.2-11.3,3.3-15c-0.1-0.6-0.1-1.1,0.3-1.5c0.5-0.6,1.3-0.8,2.3,0c0.8,0.6,1,1.3,1.2,1.9c1.2,4.5,0.6,11.7-3.8,17.2c-7.4,9.4-20.6,12-34.1,1.4c-14.6-11.5-14.6-24.8-7.6-33.7c5.7-7.2,14.2-8.2,19.8-3.7c2.7,2.1,3.4,4.5,2.5,5.7c-0.4,0.6-1.3,1.3-2.4,0.4c-0.6-0.4-0.9-1.6-2.2-2.6C385.9,370.9,380.2,371.8,375.9,377.2z"/><path d="M443.7,345.4c0,0,0.9-0.9,2.4-0.2c1.6,0.7,1.4,2,1.4,2l-11.6,25.2c-0.3,0.6-1,0.8-1.7,0.5l-43.9-20.2c-0.8-0.4-1-1-0.7-1.7l10.9-23.7c0,0,0.8-0.9,2.3-0.2c1.6,0.7,1.5,2,1.5,2l-9.7,21.1l22.3,10.3l8.2-17.8c0,0,0.9-0.9,2.5-0.2c1.6,0.7,1.4,2,1.4,2l-8.2,17.8l12.6,5.8L443.7,345.4z"/></g><g fill="none" stroke="#FFF" stroke-width="5" stroke-linecap="round" stroke-linejoin="round"><circle cx="331.6" cy="192.1" r="2.4" stroke-width="4"/><polyline points="344.3,212.6 363.1,192.1 350.1,192.1"/><path d="M301.2,211.7l9.5,14.9c4.3,6.8,13.9,7.6,19.4,1.7l12-13.1"/><path d="M329.7,256.5c4.6,6.7,7.8,14.5,8.3,22"/><polyline points="310.7,226.5 329.7,256.5 319.3,240"/><path d="M301.2,211.7c-3.6-4.9-5.6-11-5.3-17.7c0.8-13.7,11.8-24.8,25.4-25.6c14.7-0.9,27,9.8,28.8,23.8l13-0.1l-18.8,20.5c-0.7,0.9-1.5,1.7-2.3,2.5"/><path d="M139.9,201.4c30.5-3,71,5.4,113.2,24.5"/><path d="M350.1,192.1l-18.7,0.1c-1.7-14-14.1-24.7-28.8-23.8c-13.7,0.9-24.7,12-25.4,25.6c-0.4,6.6,1.6,12.8,5.3,17.7l0.5,0.8"/><line x1="342" y1="215.1" x2="344.3" y2="212.6"/><path d="M305.7,254.8c0.1,0.1,0.1,0.1,0.1,0.1c11.3,7.4,21.9,15.2,31.7,23.3c0.2,0.1,0.3,0.2,0.5,0.4"/><path d="M253.1,225.8c12.6,5.7,25.4,12.3,38.2,19.9c4.9,2.9,9.8,6,14.5,9.1"/><path d="M253.1,225.8c-36.6-16.5-71.9-25-100.5-25"/><path d="M204.7,365.2l29-31.7c-10.2-2.3-19.4-6-27.3-10.8c-4.3-2.6-9.9,0.5-9.9,5.6V362C196.5,366.3,201.8,368.3,204.7,365.2z"/><path d="M139.9,201.4l6.4,11c9.6,14.4,23.9,29,41.9,42.8"/><path d="M319.9,316.1c-14.6,12.3-36.7,20.1-61.4,20.1c-8.7,0-17-1-24.8-2.8"/><path d="M319.9,316.1c-4.4-1.1-8.8-2.2-13.3-3.5c-3.8-1-7.5-2.2-11.4-3.4c-6.9-2.2-13.8-4.6-20.7-7.2c-3-1.1-5.9-2.3-8.9-3.5l-32,34.9"/><path d="M338,278.5c0,0.8,0.1,1.6,0.1,2.4c0,0.5,0,1,0,1.5c-0.2,5.7-1.7,11.3-4.3,16.4c-3.1,6.3-7.9,12.1-13.9,17.2"/><path d="M265.7,298.5c2.9,1.2,5.9,2.3,8.9,3.5c6.9,2.6,13.9,5,20.7,7.2c3.8,1.2,7.6,2.3,11.4,3.4c4.5,1.3,8.9,2.4,13.3,3.5c6-5.1,10.7-10.9,13.9-17.2c2.6-5.2,4-10.7,4.3-16.4c0-0.5,0-1,0-1.5c0-0.8,0-1.6-0.1-2.4c-0.1-0.1-0.3-0.2-0.5-0.4c-9.8-8.1-20.4-15.9-31.8-23.4"/><line x1="305.7" y1="254.7" x2="319.2" y2="239.9"/><path d="M188.2,255.2c21.2,16.2,47.6,31.2,77.5,43.4"/></g></svg>
